<svg xmlns="http://www.w3.org/2000/svg" width="500.545" height="352.233" viewBox="0 0 500.545 352.233">
  <g id="グループ_180" data-name="グループ 180" transform="translate(-12220 -5218)">
    <g id="グループ_179" data-name="グループ 179" transform="translate(12220 5217.32)">
      <path id="パス_10" data-name="パス 10" d="M246.5.68,1.35,63.92V179.646H231.193V111.212h30.7v68.434H491.737V63.92ZM204.858,141.913h-30.7v-30.7h30.7Zm56.99-56.99h-30.7v-30.7h30.7Zm56.99,56.99h-30.7v-30.7h30.7Z" transform="translate(4.855 0)" fill="#005d30"/>
      <g id="グループ_22" data-name="グループ 22" transform="translate(0 192.515)">
        <g id="グループ_20" data-name="グループ 20">
          <path id="パス_11" data-name="パス 11" d="M49.958,109.107H21.923L11.03,139.67H21.647v2.712H0V139.67H6.664L42.742,42.42H54.37l35.665,97.2h6.48v2.712H50.234v-2.712H60.3ZM23.21,105.982h25.6L36.492,68.893Z" transform="translate(0 -42.42)" fill="#00a199"/>
          <path id="パス_12" data-name="パス 12" d="M104.958,78.137h-2.712C94.617,55.065,90.2,45.6,77.336,45.6h-1.7v93.114H87.677V141.7H36.019v-2.987H48.06V45.6H46.222c-12.869,0-17.694,10.617-24.91,32.539H18.6L20.025,42.61h83.508Z" transform="translate(66.885 -41.737)" fill="#00a199"/>
          <path id="パス_13" data-name="パス 13" d="M75.8,91.593v47.43H85v2.712H38.99v-2.712h9.192V45.312H38.99V42.6H81.732c29.6,0,43.753,3.125,43.753,23.761,0,17.281-9.054,22.382-24.083,23.623V90.4c15.3,1.976,20.544,7.905,20.544,24.358v7.491c0,9.192.414,12.455,4.412,12.455,2.528,0,4.688-1.149,6.526-12.179l2.39.276c-2.114,16.132-6.067,20.222-19.257,20.222-17.832,0-23.072-5.929-23.072-25.875V106.805c0-10.065-1.976-15.3-9.606-15.3H75.8Zm0-2.666h4.55c10.479,0,15.856-5.791,15.856-21.1v-4.09c0-15.856-5.791-18.384-15.718-18.384H75.8Z" transform="translate(140.206 -41.773)" fill="#00a199"/>
          <path id="パス_14" data-name="パス 14" d="M109.188,109.071H81.153L70.26,139.634H80.877v2.712H59.23v-2.712h6.664l36.078-97.2H113.6l35.665,97.2h6.526v2.712H109.464v-2.712h10.065ZM82.44,105.946h25.6L95.722,68.857Z" transform="translate(212.988 -42.384)" fill="#00a199"/>
          <path id="パス_15" data-name="パス 15" d="M124.346,42.646v2.712h-7.767v93.665h7.767v2.712H81.19v-2.712h7.767V45.312H81.19V42.6h43.156Z" transform="translate(291.955 -41.773)" fill="#00a199"/>
          <path id="パス_16" data-name="パス 16" d="M142.923,42.61v3.125H127.94v92.838h5.1c17.557,0,25.324-12.731,33.688-30.012h2.987L167.052,141.7H92v-3.125h8.365V45.735H92V42.61h50.923Z" transform="translate(330.827 -41.737)" fill="#00a199"/>
        </g>
        <g id="グループ_21" data-name="グループ 21">
          <path id="パス_17" data-name="パス 17" d="M49.958,109.107H21.923L11.03,139.67H21.647v2.712H0V139.67H6.664L42.742,42.42H54.37l35.665,97.2h6.48v2.712H50.234v-2.712H60.3ZM23.21,105.982h25.6L36.492,68.893Z" transform="translate(0 -42.42)" fill="#005d30"/>
          <path id="パス_18" data-name="パス 18" d="M104.958,78.137h-2.712C94.617,55.065,90.2,45.6,77.336,45.6h-1.7v93.114H87.677V141.7H36.019v-2.987H48.06V45.6H46.222c-12.869,0-17.694,10.617-24.91,32.539H18.6L20.025,42.61h83.508Z" transform="translate(66.885 -41.737)" fill="#005d30"/>
          <path id="パス_19" data-name="パス 19" d="M75.8,91.593v47.43H85v2.712H38.99v-2.712h9.192V45.312H38.99V42.6H81.732c29.6,0,43.753,3.125,43.753,23.761,0,17.281-9.054,22.382-24.083,23.623V90.4c15.3,1.976,20.544,7.905,20.544,24.358v7.491c0,9.192.414,12.455,4.412,12.455,2.528,0,4.688-1.149,6.526-12.179l2.39.276c-2.114,16.132-6.067,20.222-19.257,20.222-17.832,0-23.072-5.929-23.072-25.875V106.805c0-10.065-1.976-15.3-9.606-15.3H75.8Zm0-2.666h4.55c10.479,0,15.856-5.791,15.856-21.1v-4.09c0-15.856-5.791-18.384-15.718-18.384H75.8Z" transform="translate(140.206 -41.773)" fill="#005d30"/>
          <path id="パス_20" data-name="パス 20" d="M109.188,109.071H81.153L70.26,139.634H80.877v2.712H59.23v-2.712h6.664l36.078-97.2H113.6l35.665,97.2h6.526v2.712H109.464v-2.712h10.065ZM82.44,105.946h25.6L95.722,68.857Z" transform="translate(212.988 -42.384)" fill="#005d30"/>
          <path id="パス_21" data-name="パス 21" d="M124.346,42.646v2.712h-7.767v93.665h7.767v2.712H81.19v-2.712h7.767V45.312H81.19V42.6h43.156Z" transform="translate(291.955 -41.773)" fill="#005d30"/>
          <path id="パス_22" data-name="パス 22" d="M142.923,42.61v3.125H127.94v92.838h5.1c17.557,0,25.324-12.731,33.688-30.012h2.987L167.052,141.7H92v-3.125h8.365V45.735H92V42.61h50.923Z" transform="translate(330.827 -41.737)" fill="#005d30"/>
        </g>
      </g>
      <g id="グループ_25" data-name="グループ 25" transform="translate(6.664 304.61)">
        <g id="グループ_23" data-name="グループ 23">
          <path id="パス_23" data-name="パス 23" d="M15.1,88.181v5.285c0,12.317,3.539,20.268,10.846,20.268,5.423,0,9.789-5.607,13.512-14.339h1.195l-.46,14.937h-.735C39,113.459,38.723,113,37.666,113c-2.3,0-5.975,2.068-13.328,2.068-14.2,0-22.888-7.491-22.888-23.485C1.45,75.4,10.826,66.81,24.522,66.81c6.94,0,10.157,2.068,12.5,2.068,1.057,0,1.333-.46,1.792-1.333h.735L40.1,82.069H38.953c-3.677-8.227-7.675-13.926-13.466-13.926C18.731,68.189,15.1,74.347,15.1,88.181Z" transform="translate(-1.45 -66.81)" fill="#00a199"/>
          <path id="パス_24" data-name="パス 24" d="M34.388,66.82c14.385,0,21.693,8.824,21.693,24.037,0,14.937-7.032,24.221-22.474,24.221-14.937,0-22.106-8.64-22.106-23.347C11.5,76.288,19.451,66.82,34.388,66.82Zm7.905,21.923C42.293,75,41.879,68.2,33.882,68.2c-8.089,0-8.64,7.078-8.64,20.82v4.826c0,12.593.827,19.809,8.64,19.809,7.491,0,8.411-6.48,8.411-19.946Z" transform="translate(34.689 -66.774)" fill="#00a199"/>
          <path id="パス_25" data-name="パス 25" d="M39.393,90.134v22.428h4.366v1.287H22.02v-1.287h4.366v-44.3H22.02V66.97H42.242c13.972,0,20.682,1.471,20.682,11.26,0,8.181-4.274,10.571-11.4,11.168v.184c7.216.919,9.7,3.769,9.7,11.536v3.539c0,4.366.184,5.883,2.068,5.883,1.195,0,2.206-.552,3.079-5.745l1.149.138c-1.011,7.629-2.9,9.56-9.1,9.56-8.411,0-10.892-2.8-10.892-12.271V97.349c0-4.734-.919-7.216-4.55-7.216Zm0-1.241h2.16c4.964,0,7.491-2.758,7.491-9.973v-1.93c0-7.491-2.758-8.686-7.445-8.686H39.393Z" transform="translate(72.519 -66.235)" fill="#00a199"/>
          <path id="パス_26" data-name="パス 26" d="M52.157,66.98c12.593,0,19.992,2.8,19.992,13.328,0,11.4-8.778,14.339-21.739,14.339h-.551v17.924h8.365v1.287H32.44v-1.287h4.366v-44.3H32.44V66.98H52.157Zm-2.3,26.335h1.425c5.607,0,7.078-3.907,7.078-11.628V78.47c0-7.537-1.609-10.249-6.71-10.249H49.859V93.315Z" transform="translate(109.988 -66.199)" fill="#00a199"/>
          <path id="パス_27" data-name="パス 27" d="M64.948,66.82c14.385,0,21.693,8.824,21.693,24.037,0,14.937-7.032,24.221-22.474,24.221-14.937,0-22.106-8.64-22.106-23.347C42.06,76.288,50.011,66.82,64.948,66.82Zm7.9,21.923C72.853,75,72.439,68.2,64.442,68.2c-8.089,0-8.64,7.078-8.64,20.82v4.826c0,12.593.827,19.809,8.64,19.809,7.491,0,8.411-6.48,8.411-19.946Z" transform="translate(144.581 -66.774)" fill="#00a199"/>
          <path id="パス_28" data-name="パス 28" d="M69.953,90.134v22.428h4.366v1.287H52.58v-1.287h4.366v-44.3H52.58V66.97H72.8c13.972,0,20.682,1.471,20.682,11.26,0,8.181-4.274,10.571-11.4,11.168v.184c7.216.919,9.7,3.769,9.7,11.536v3.539c0,4.366.184,5.883,2.068,5.883,1.195,0,2.206-.552,3.079-5.745l1.149.138c-1.011,7.629-2.9,9.56-9.1,9.56-8.411,0-10.892-2.8-10.892-12.271V97.349c0-4.734-.919-7.216-4.55-7.216Zm0-1.241h2.16c4.964,0,7.491-2.758,7.491-9.973v-1.93c0-7.491-2.758-8.686-7.445-8.686H69.953v20.59Z" transform="translate(182.411 -66.235)" fill="#00a199"/>
          <path id="パス_29" data-name="パス 29" d="M86.493,98.382H73.257l-5.147,14.477h5.01v1.287H62.87v-1.287H66L83.046,66.9h5.469l16.867,45.959h3.079v1.287H86.585v-1.287h4.734ZM73.854,96.912H85.988L80.151,79.355Z" transform="translate(219.413 -66.486)" fill="#00a199"/>
          <path id="パス_30" data-name="パス 30" d="M114.232,83.791h-1.287c-3.631-10.892-5.7-15.4-11.766-15.4H100.4v44.029h5.7v1.425H81.647v-1.425h5.7V68.395h-.873c-6.067,0-8.365,5.01-11.766,15.4H73.42l.689-16.821h39.479Z" transform="translate(257.35 -66.235)" fill="#00a199"/>
          <path id="パス_31" data-name="パス 31" d="M103.616,66.98v1.287H99.939v44.3h3.677v1.287H83.21v-1.287h3.677v-44.3H83.21V66.98Z" transform="translate(292.554 -66.199)" fill="#00a199"/>
          <path id="パス_32" data-name="パス 32" d="M111.5,66.82c14.385,0,21.693,8.824,21.693,24.037,0,14.937-7.032,24.221-22.474,24.221-14.937,0-22.106-8.64-22.106-23.347C88.61,76.288,96.607,66.82,111.5,66.82ZM119.4,88.743c0-13.742-.414-20.544-8.411-20.544-8.089,0-8.64,7.078-8.64,20.82v4.826c0,12.593.827,19.809,8.64,19.809,7.491,0,8.411-6.48,8.411-19.946Z" transform="translate(311.972 -66.774)" fill="#00a199"/>
          <path id="パス_33" data-name="パス 33" d="M137.095,113.813h-9.376l-22.98-43.294v42.053h3.677v1.287H99.27v-1.287h3.677v-44.3H99.27V66.98h18.476l17.557,33.6V68.267h-3.677V66.98h9.146v1.287h-3.677v45.546Z" transform="translate(350.305 -66.199)" fill="#00a199"/>
        </g>
        <g id="グループ_24" data-name="グループ 24">
          <path id="パス_34" data-name="パス 34" d="M15.1,88.181v5.285c0,12.317,3.539,20.268,10.846,20.268,5.423,0,9.789-5.607,13.512-14.339h1.195l-.46,14.937h-.735C39,113.459,38.723,113,37.666,113c-2.3,0-5.975,2.068-13.328,2.068-14.2,0-22.888-7.491-22.888-23.485C1.45,75.4,10.826,66.81,24.522,66.81c6.94,0,10.157,2.068,12.5,2.068,1.057,0,1.333-.46,1.792-1.333h.735L40.1,82.069H38.953c-3.677-8.227-7.675-13.926-13.466-13.926C18.731,68.189,15.1,74.347,15.1,88.181Z" transform="translate(-1.45 -66.81)" fill="#005d30"/>
          <path id="パス_35" data-name="パス 35" d="M34.388,66.82c14.385,0,21.693,8.824,21.693,24.037,0,14.937-7.032,24.221-22.474,24.221-14.937,0-22.106-8.64-22.106-23.347C11.5,76.288,19.451,66.82,34.388,66.82Zm7.905,21.923C42.293,75,41.879,68.2,33.882,68.2c-8.089,0-8.64,7.078-8.64,20.82v4.826c0,12.593.827,19.809,8.64,19.809,7.491,0,8.411-6.48,8.411-19.946Z" transform="translate(34.689 -66.774)" fill="#005d30"/>
          <path id="パス_36" data-name="パス 36" d="M39.393,90.134v22.428h4.366v1.287H22.02v-1.287h4.366v-44.3H22.02V66.97H42.242c13.972,0,20.682,1.471,20.682,11.26,0,8.181-4.274,10.571-11.4,11.168v.184c7.216.919,9.7,3.769,9.7,11.536v3.539c0,4.366.184,5.883,2.068,5.883,1.195,0,2.206-.552,3.079-5.745l1.149.138c-1.011,7.629-2.9,9.56-9.1,9.56-8.411,0-10.892-2.8-10.892-12.271V97.349c0-4.734-.919-7.216-4.55-7.216Zm0-1.241h2.16c4.964,0,7.491-2.758,7.491-9.973v-1.93c0-7.491-2.758-8.686-7.445-8.686H39.393Z" transform="translate(72.519 -66.235)" fill="#005d30"/>
          <path id="パス_37" data-name="パス 37" d="M52.157,66.98c12.593,0,19.992,2.8,19.992,13.328,0,11.4-8.778,14.339-21.739,14.339h-.551v17.924h8.365v1.287H32.44v-1.287h4.366v-44.3H32.44V66.98H52.157Zm-2.3,26.335h1.425c5.607,0,7.078-3.907,7.078-11.628V78.47c0-7.537-1.609-10.249-6.71-10.249H49.859V93.315Z" transform="translate(109.988 -66.199)" fill="#005d30"/>
          <path id="パス_38" data-name="パス 38" d="M64.948,66.82c14.385,0,21.693,8.824,21.693,24.037,0,14.937-7.032,24.221-22.474,24.221-14.937,0-22.106-8.64-22.106-23.347C42.06,76.288,50.011,66.82,64.948,66.82Zm7.9,21.923C72.853,75,72.439,68.2,64.442,68.2c-8.089,0-8.64,7.078-8.64,20.82v4.826c0,12.593.827,19.809,8.64,19.809,7.491,0,8.411-6.48,8.411-19.946Z" transform="translate(144.581 -66.774)" fill="#005d30"/>
          <path id="パス_39" data-name="パス 39" d="M69.953,90.134v22.428h4.366v1.287H52.58v-1.287h4.366v-44.3H52.58V66.97H72.8c13.972,0,20.682,1.471,20.682,11.26,0,8.181-4.274,10.571-11.4,11.168v.184c7.216.919,9.7,3.769,9.7,11.536v3.539c0,4.366.184,5.883,2.068,5.883,1.195,0,2.206-.552,3.079-5.745l1.149.138c-1.011,7.629-2.9,9.56-9.1,9.56-8.411,0-10.892-2.8-10.892-12.271V97.349c0-4.734-.919-7.216-4.55-7.216Zm0-1.241h2.16c4.964,0,7.491-2.758,7.491-9.973v-1.93c0-7.491-2.758-8.686-7.445-8.686H69.953v20.59Z" transform="translate(182.411 -66.235)" fill="#005d30"/>
          <path id="パス_40" data-name="パス 40" d="M86.493,98.382H73.257l-5.147,14.477h5.01v1.287H62.87v-1.287H66L83.046,66.9h5.469l16.867,45.959h3.079v1.287H86.585v-1.287h4.734ZM73.854,96.912H85.988L80.151,79.355Z" transform="translate(219.413 -66.486)" fill="#005d30"/>
          <path id="パス_41" data-name="パス 41" d="M114.232,83.791h-1.287c-3.631-10.892-5.7-15.4-11.766-15.4H100.4v44.029h5.7v1.425H81.647v-1.425h5.7V68.395h-.873c-6.067,0-8.365,5.01-11.766,15.4H73.42l.689-16.821h39.479Z" transform="translate(257.35 -66.235)" fill="#005d30"/>
          <path id="パス_42" data-name="パス 42" d="M103.616,66.98v1.287H99.939v44.3h3.677v1.287H83.21v-1.287h3.677v-44.3H83.21V66.98Z" transform="translate(292.554 -66.199)" fill="#005d30"/>
          <path id="パス_43" data-name="パス 43" d="M111.5,66.82c14.385,0,21.693,8.824,21.693,24.037,0,14.937-7.032,24.221-22.474,24.221-14.937,0-22.106-8.64-22.106-23.347C88.61,76.288,96.607,66.82,111.5,66.82ZM119.4,88.743c0-13.742-.414-20.544-8.411-20.544-8.089,0-8.64,7.078-8.64,20.82v4.826c0,12.593.827,19.809,8.64,19.809,7.491,0,8.411-6.48,8.411-19.946Z" transform="translate(311.972 -66.774)" fill="#005d30"/>
          <path id="パス_44" data-name="パス 44" d="M137.095,113.813h-9.376l-22.98-43.294v42.053h3.677v1.287H99.27v-1.287h3.677v-44.3H99.27V66.98h18.476l17.557,33.6V68.267h-3.677V66.98h9.146v1.287h-3.677v45.546Z" transform="translate(350.305 -66.199)" fill="#005d30"/>
        </g>
      </g>
    </g>
  </g>
</svg>
