<svg xmlns="http://www.w3.org/2000/svg" width="119.193" height="83.876" viewBox="0 0 119.193 83.876">
  <g id="グループ_182" data-name="グループ 182" transform="translate(-13123.264 -5104.179)">
    <g id="グループ_181" data-name="グループ 181" transform="translate(903.264 -113.821)">
      <g id="グループ_179" data-name="グループ 179" transform="translate(12220 5218)">
        <path id="パス_10" data-name="パス 10" d="M59.726.68,1.35,15.739V43.3H56.082V27h7.311V43.3h54.732V15.739ZM49.811,34.311H42.5V27h7.311ZM63.381,20.741H56.071V13.43h7.311ZM76.952,34.311H69.642V27h7.311Z" transform="translate(0.127 -0.68)" fill="#005d30"/>
        <g id="グループ_22" data-name="グループ 22" transform="translate(0 45.681)">
          <g id="グループ_20" data-name="グループ 20">
            <path id="パス_11" data-name="パス 11" d="M11.9,58.3H5.22L2.627,65.578H5.155v.646H0v-.646H1.587L10.178,42.42h2.769L21.44,65.567h1.543v.646H11.962v-.646h2.4Zm-6.369-.744h6.1L8.69,48.724Z" transform="translate(0 -42.42)" fill="#00a199"/>
            <path id="パス_12" data-name="パス 12" d="M39.164,51.07h-.646c-1.817-5.494-2.867-7.748-5.932-7.748h-.4V65.494h2.867v.711h-12.3v-.711h2.867V43.321h-.438c-3.064,0-4.213,2.528-5.932,7.748H18.6l.339-8.46H38.825Z" transform="translate(1.756 -42.402)" fill="#00a199"/>
            <path id="パス_13" data-name="パス 13" d="M47.756,54.266V65.561h2.189v.646H38.99v-.646h2.189V43.246H38.99V42.6H49.168c7.048,0,10.419.744,10.419,5.658,0,4.115-2.156,5.33-5.735,5.625v.1c3.644.471,4.892,1.882,4.892,5.8v1.784c0,2.189.1,2.966,1.051,2.966.6,0,1.116-.274,1.554-2.9l.569.066c-.5,3.841-1.445,4.815-4.586,4.815-4.246,0-5.494-1.412-5.494-6.162V57.889c0-2.4-.471-3.644-2.287-3.644H47.756Zm0-.635H48.84c2.5,0,3.776-1.379,3.776-5.023v-.974c0-3.776-1.379-4.378-3.743-4.378H47.756Z" transform="translate(3.681 -42.403)" fill="#00a199"/>
            <path id="パス_14" data-name="パス 14" d="M71.126,58.3H64.45l-2.594,7.278h2.528v.646H59.23v-.646h1.587L69.408,42.43h2.769L80.67,65.577h1.554v.646H71.192v-.646h2.4Zm-6.369-.744h6.1L67.92,48.723Z" transform="translate(5.592 -42.419)" fill="#00a199"/>
            <path id="パス_15" data-name="パス 15" d="M91.467,42.611v.646h-1.85v22.3h1.85v.646H81.19v-.646h1.85V43.246H81.19V42.6H91.467Z" transform="translate(7.666 -42.403)" fill="#00a199"/>
            <path id="パス_16" data-name="パス 16" d="M104.126,42.61v.744h-3.568V65.461h1.215c4.181,0,6.03-3.032,8.022-7.147h.711l-.635,7.891H92v-.744h1.992V43.354H92V42.61h12.126Z" transform="translate(8.686 -42.402)" fill="#00a199"/>
          </g>
          <g id="グループ_21" data-name="グループ 21">
            <path id="パス_17" data-name="パス 17" d="M11.9,58.3H5.22L2.627,65.578H5.155v.646H0v-.646H1.587L10.178,42.42h2.769L21.44,65.567h1.543v.646H11.962v-.646h2.4Zm-6.369-.744h6.1L8.69,48.724Z" transform="translate(0 -42.42)" fill="#005d30"/>
            <path id="パス_18" data-name="パス 18" d="M39.164,51.07h-.646c-1.817-5.494-2.867-7.748-5.932-7.748h-.4V65.494h2.867v.711h-12.3v-.711h2.867V43.321h-.438c-3.064,0-4.213,2.528-5.932,7.748H18.6l.339-8.46H38.825Z" transform="translate(1.756 -42.402)" fill="#005d30"/>
            <path id="パス_19" data-name="パス 19" d="M47.756,54.266V65.561h2.189v.646H38.99v-.646h2.189V43.246H38.99V42.6H49.168c7.048,0,10.419.744,10.419,5.658,0,4.115-2.156,5.33-5.735,5.625v.1c3.644.471,4.892,1.882,4.892,5.8v1.784c0,2.189.1,2.966,1.051,2.966.6,0,1.116-.274,1.554-2.9l.569.066c-.5,3.841-1.445,4.815-4.586,4.815-4.246,0-5.494-1.412-5.494-6.162V57.889c0-2.4-.471-3.644-2.287-3.644H47.756Zm0-.635H48.84c2.5,0,3.776-1.379,3.776-5.023v-.974c0-3.776-1.379-4.378-3.743-4.378H47.756Z" transform="translate(3.681 -42.403)" fill="#005d30"/>
            <path id="パス_20" data-name="パス 20" d="M71.126,58.3H64.45l-2.594,7.278h2.528v.646H59.23v-.646h1.587L69.408,42.43h2.769L80.67,65.577h1.554v.646H71.192v-.646h2.4Zm-6.369-.744h6.1L67.92,48.723Z" transform="translate(5.592 -42.419)" fill="#005d30"/>
            <path id="パス_21" data-name="パス 21" d="M91.467,42.611v.646h-1.85v22.3h1.85v.646H81.19v-.646h1.85V43.246H81.19V42.6H91.467Z" transform="translate(7.666 -42.403)" fill="#005d30"/>
            <path id="パス_22" data-name="パス 22" d="M104.126,42.61v.744h-3.568V65.461h1.215c4.181,0,6.03-3.032,8.022-7.147h.711l-.635,7.891H92v-.744h1.992V43.354H92V42.61h12.126Z" transform="translate(8.686 -42.402)" fill="#005d30"/>
          </g>
        </g>
        <g id="グループ_25" data-name="グループ 25" transform="translate(1.587 72.374)">
          <g id="グループ_23" data-name="グループ 23">
            <path id="パス_23" data-name="パス 23" d="M4.7,71.9v1.259c0,2.933.843,4.826,2.583,4.826,1.291,0,2.331-1.335,3.218-3.415h.285l-.109,3.557H10.5c-.109-.208-.175-.317-.427-.317A17.23,17.23,0,0,1,6.9,78.3c-3.382,0-5.45-1.784-5.45-5.592,0-3.852,2.233-5.9,5.494-5.9a15.8,15.8,0,0,1,2.977.492c.252,0,.317-.109.427-.317h.175l.131,3.458H10.38c-.876-1.959-1.828-3.316-3.207-3.316C5.565,67.138,4.7,68.6,4.7,71.9Z" transform="translate(-1.45 -66.81)" fill="#00a199"/>
            <path id="パス_24" data-name="パス 24" d="M16.95,66.82c3.426,0,5.166,2.1,5.166,5.724,0,3.557-1.674,5.768-5.352,5.768-3.557,0-5.264-2.057-5.264-5.56C11.5,69.075,13.393,66.82,16.95,66.82Zm1.882,5.22c0-3.272-.1-4.892-2-4.892-1.926,0-2.058,1.685-2.058,4.958v1.149c0,3,.2,4.717,2.058,4.717,1.784,0,2-1.543,2-4.75Z" transform="translate(-0.501 -66.809)" fill="#00a199"/>
            <path id="パス_25" data-name="パス 25" d="M26.157,72.486v5.341H27.2v.306H22.02v-.306h1.04V67.276H22.02V66.97h4.815c3.327,0,4.925.35,4.925,2.681,0,1.948-1.018,2.517-2.714,2.659v.044c1.718.219,2.309.9,2.309,2.747v.843c0,1.04.044,1.4.492,1.4.285,0,.525-.131.733-1.368l.274.033c-.241,1.817-.689,2.276-2.167,2.276-2,0-2.594-.668-2.594-2.922V74.2c0-1.127-.219-1.718-1.083-1.718Zm0-.3h.514c1.182,0,1.784-.657,1.784-2.375v-.46c0-1.784-.657-2.068-1.773-2.068h-.525Z" transform="translate(0.492 -66.795)" fill="#00a199"/>
            <path id="パス_26" data-name="パス 26" d="M37.135,66.98c3,0,4.761.668,4.761,3.174,0,2.714-2.09,3.415-5.177,3.415h-.131v4.268H38.58v.306H32.44v-.306h1.04V67.286H32.44V66.98h4.7Zm-.547,6.271h.339c1.335,0,1.685-.93,1.685-2.769v-.766c0-1.795-.383-2.441-1.6-2.441h-.427v5.976Z" transform="translate(1.476 -66.794)" fill="#00a199"/>
            <path id="パス_27" data-name="パス 27" d="M47.51,66.82c3.426,0,5.166,2.1,5.166,5.724,0,3.557-1.674,5.768-5.352,5.768-3.557,0-5.264-2.057-5.264-5.56C42.06,69.075,43.953,66.82,47.51,66.82Zm1.882,5.22c0-3.272-.1-4.892-2-4.892-1.926,0-2.058,1.685-2.058,4.958v1.149c0,3,.2,4.717,2.058,4.717,1.784,0,2-1.543,2-4.75Z" transform="translate(2.384 -66.809)" fill="#00a199"/>
            <path id="パス_28" data-name="パス 28" d="M56.717,72.486v5.341h1.04v.306H52.58v-.306h1.04V67.276H52.58V66.97H57.4c3.327,0,4.925.35,4.925,2.681,0,1.948-1.018,2.517-2.714,2.659v.044c1.718.219,2.309.9,2.309,2.747v.843c0,1.04.044,1.4.492,1.4.285,0,.525-.131.733-1.368l.274.033c-.241,1.817-.689,2.276-2.167,2.276-2,0-2.594-.668-2.594-2.922V74.2c0-1.127-.219-1.718-1.083-1.718Zm0-.3h.514c1.182,0,1.784-.657,1.784-2.375v-.46c0-1.784-.657-2.068-1.773-2.068h-.525v4.9Z" transform="translate(3.377 -66.795)" fill="#00a199"/>
            <path id="パス_29" data-name="パス 29" d="M68.5,74.4H65.343l-1.226,3.447h1.193v.306H62.87v-.306h.744L67.674,66.9h1.3l4.017,10.944h.733v.306H68.517v-.306h1.127Zm-3.01-.35h2.889l-1.39-4.181Z" transform="translate(4.349 -66.802)" fill="#00a199"/>
            <path id="パス_30" data-name="パス 30" d="M83.138,70.976h-.306c-.865-2.594-1.357-3.666-2.8-3.666h-.186V77.794H81.2v.339H75.379v-.339h1.357V67.309h-.208c-1.445,0-1.992,1.193-2.8,3.666H73.42l.164-4.006h9.4Z" transform="translate(5.345 -66.795)" fill="#00a199"/>
            <path id="パス_31" data-name="パス 31" d="M88.069,66.98v.306h-.876v10.55h.876v.306H83.21v-.306h.876V67.286H83.21V66.98Z" transform="translate(6.269 -66.794)" fill="#00a199"/>
            <path id="パス_32" data-name="パス 32" d="M94.06,66.82c3.426,0,5.166,2.1,5.166,5.724,0,3.557-1.674,5.768-5.352,5.768-3.557,0-5.264-2.057-5.264-5.56C88.61,69.075,90.514,66.82,94.06,66.82Zm1.882,5.22c0-3.272-.1-4.892-2-4.892-1.926,0-2.058,1.685-2.058,4.958v1.149c0,3,.2,4.717,2.058,4.717,1.784,0,2-1.543,2-4.75Z" transform="translate(6.779 -66.809)" fill="#00a199"/>
            <path id="パス_33" data-name="パス 33" d="M108.277,78.132h-2.233l-5.472-10.309V77.837h.876v.306H99.27v-.306h.876V67.286H99.27V66.98h4.4l4.181,8V67.286h-.876V66.98h2.178v.306h-.876V78.132Z" transform="translate(7.786 -66.794)" fill="#00a199"/>
          </g>
          <g id="グループ_24" data-name="グループ 24">
            <path id="パス_34" data-name="パス 34" d="M4.7,71.9v1.259c0,2.933.843,4.826,2.583,4.826,1.291,0,2.331-1.335,3.218-3.415h.285l-.109,3.557H10.5c-.109-.208-.175-.317-.427-.317A17.23,17.23,0,0,1,6.9,78.3c-3.382,0-5.45-1.784-5.45-5.592,0-3.852,2.233-5.9,5.494-5.9a15.8,15.8,0,0,1,2.977.492c.252,0,.317-.109.427-.317h.175l.131,3.458H10.38c-.876-1.959-1.828-3.316-3.207-3.316C5.565,67.138,4.7,68.6,4.7,71.9Z" transform="translate(-1.45 -66.81)" fill="#005d30"/>
            <path id="パス_35" data-name="パス 35" d="M16.95,66.82c3.426,0,5.166,2.1,5.166,5.724,0,3.557-1.674,5.768-5.352,5.768-3.557,0-5.264-2.057-5.264-5.56C11.5,69.075,13.393,66.82,16.95,66.82Zm1.882,5.22c0-3.272-.1-4.892-2-4.892-1.926,0-2.058,1.685-2.058,4.958v1.149c0,3,.2,4.717,2.058,4.717,1.784,0,2-1.543,2-4.75Z" transform="translate(-0.501 -66.809)" fill="#005d30"/>
            <path id="パス_36" data-name="パス 36" d="M26.157,72.486v5.341H27.2v.306H22.02v-.306h1.04V67.276H22.02V66.97h4.815c3.327,0,4.925.35,4.925,2.681,0,1.948-1.018,2.517-2.714,2.659v.044c1.718.219,2.309.9,2.309,2.747v.843c0,1.04.044,1.4.492,1.4.285,0,.525-.131.733-1.368l.274.033c-.241,1.817-.689,2.276-2.167,2.276-2,0-2.594-.668-2.594-2.922V74.2c0-1.127-.219-1.718-1.083-1.718Zm0-.3h.514c1.182,0,1.784-.657,1.784-2.375v-.46c0-1.784-.657-2.068-1.773-2.068h-.525Z" transform="translate(0.492 -66.795)" fill="#005d30"/>
            <path id="パス_37" data-name="パス 37" d="M37.135,66.98c3,0,4.761.668,4.761,3.174,0,2.714-2.09,3.415-5.177,3.415h-.131v4.268H38.58v.306H32.44v-.306h1.04V67.286H32.44V66.98h4.7Zm-.547,6.271h.339c1.335,0,1.685-.93,1.685-2.769v-.766c0-1.795-.383-2.441-1.6-2.441h-.427v5.976Z" transform="translate(1.476 -66.794)" fill="#005d30"/>
            <path id="パス_38" data-name="パス 38" d="M47.51,66.82c3.426,0,5.166,2.1,5.166,5.724,0,3.557-1.674,5.768-5.352,5.768-3.557,0-5.264-2.057-5.264-5.56C42.06,69.075,43.953,66.82,47.51,66.82Zm1.882,5.22c0-3.272-.1-4.892-2-4.892-1.926,0-2.058,1.685-2.058,4.958v1.149c0,3,.2,4.717,2.058,4.717,1.784,0,2-1.543,2-4.75Z" transform="translate(2.384 -66.809)" fill="#005d30"/>
            <path id="パス_39" data-name="パス 39" d="M56.717,72.486v5.341h1.04v.306H52.58v-.306h1.04V67.276H52.58V66.97H57.4c3.327,0,4.925.35,4.925,2.681,0,1.948-1.018,2.517-2.714,2.659v.044c1.718.219,2.309.9,2.309,2.747v.843c0,1.04.044,1.4.492,1.4.285,0,.525-.131.733-1.368l.274.033c-.241,1.817-.689,2.276-2.167,2.276-2,0-2.594-.668-2.594-2.922V74.2c0-1.127-.219-1.718-1.083-1.718Zm0-.3h.514c1.182,0,1.784-.657,1.784-2.375v-.46c0-1.784-.657-2.068-1.773-2.068h-.525v4.9Z" transform="translate(3.377 -66.795)" fill="#005d30"/>
            <path id="パス_40" data-name="パス 40" d="M68.5,74.4H65.343l-1.226,3.447h1.193v.306H62.87v-.306h.744L67.674,66.9h1.3l4.017,10.944h.733v.306H68.517v-.306h1.127Zm-3.01-.35h2.889l-1.39-4.181Z" transform="translate(4.349 -66.802)" fill="#005d30"/>
            <path id="パス_41" data-name="パス 41" d="M83.138,70.976h-.306c-.865-2.594-1.357-3.666-2.8-3.666h-.186V77.794H81.2v.339H75.379v-.339h1.357V67.309h-.208c-1.445,0-1.992,1.193-2.8,3.666H73.42l.164-4.006h9.4Z" transform="translate(5.345 -66.795)" fill="#005d30"/>
            <path id="パス_42" data-name="パス 42" d="M88.069,66.98v.306h-.876v10.55h.876v.306H83.21v-.306h.876V67.286H83.21V66.98Z" transform="translate(6.269 -66.794)" fill="#005d30"/>
            <path id="パス_43" data-name="パス 43" d="M94.06,66.82c3.426,0,5.166,2.1,5.166,5.724,0,3.557-1.674,5.768-5.352,5.768-3.557,0-5.264-2.057-5.264-5.56C88.61,69.075,90.514,66.82,94.06,66.82Zm1.882,5.22c0-3.272-.1-4.892-2-4.892-1.926,0-2.058,1.685-2.058,4.958v1.149c0,3,.2,4.717,2.058,4.717,1.784,0,2-1.543,2-4.75Z" transform="translate(6.779 -66.809)" fill="#005d30"/>
            <path id="パス_44" data-name="パス 44" d="M108.277,78.132h-2.233l-5.472-10.309V77.837h.876v.306H99.27v-.306h.876V67.286H99.27V66.98h4.4l4.181,8V67.286h-.876V66.98h2.178v.306h-.876V78.132Z" transform="translate(7.786 -66.794)" fill="#005d30"/>
          </g>
        </g>
      </g>
    </g>
  </g>
</svg>
