<svg xmlns="http://www.w3.org/2000/svg" width="282.352" height="43" viewBox="0 0 282.352 43">
  <g id="グループ_184" data-name="グループ 184" transform="translate(-12684.544 -6057)">
    <g id="_240822atraillogool" data-name="240822atraillogool" transform="translate(12684.544 6056.32)">
      <g id="グループ_19" data-name="グループ 19" transform="translate(72.922 12.266)">
        <path id="パス_1" data-name="パス 1" d="M131.171,27.481a16.084,16.084,0,0,0,2.07.18c1.184,0,4.634-.5,7.473-.954a5.23,5.23,0,0,0,1.93-.544,1.752,1.752,0,0,1,.842-.342c.3,0,.931.522,1.616,1.206.8.8,1.319,1.453,1.319,2.02,0,.41-.365.656-1.044.774a21.789,21.789,0,0,0-4.158,1.476c-.7.41-.976,1.818-1.251,2.7a11.994,11.994,0,0,1-5.431,7.227,9.4,9.4,0,0,1-2.772,1.251c-.09,0-.157-.022-.157-.112,0-.112.224-.275.477-.477a18.129,18.129,0,0,0,4.113-4.545,10.554,10.554,0,0,0,1.616-4.792,3.553,3.553,0,0,0-.342-1.543.94.94,0,0,1-.157-.41c0-.2.3-.23.656-.23a4.6,4.6,0,0,1,1.84.342,1.369,1.369,0,0,0,.634.112c.656-.067,2.295-2.183,2.295-2.637,0-.09-.045-.2-.252-.2-.8,0-3.226.41-4.18.567a25.155,25.155,0,0,0-5,1.476,1.841,1.841,0,0,1-.656.18c-.864,0-2.682-1.84-2.682-2.7,0-.112.045-.18.18-.18S130.739,27.413,131.171,27.481Z" transform="translate(-129.97 -23.301)" fill="#005d30"/>
        <path id="パス_2" data-name="パス 2" d="M179.559,23.44c.976,0,2.682.819,2.682,1.638a1.289,1.289,0,0,1-.112.454,4.825,4.825,0,0,0-.3.976,23.733,23.733,0,0,0-.157,2.525.749.749,0,0,0,.612.819c1.521.32,5.274,1.588,5.274,3.681a1.245,1.245,0,0,1-1.206,1.206,1.959,1.959,0,0,1-1.543-1.133,9.8,9.8,0,0,0-2-2.57c-.365-.3-.522-.387-.707-.387-.252,0-.477.112-.477,1.5,0,1.885.022,3.725.135,5.566.022.387.045.8.045,1.184,0,1.341-.067,2.295-.886,2.295-.729,0-1.543-1.476-1.543-2.385a5.339,5.339,0,0,1,.09-.774c.157-.931.2-3.568.23-6.065a43.456,43.456,0,0,0-.18-6.682,2.271,2.271,0,0,0-.707-1.206c-.224-.2-.252-.252-.252-.342C178.56,23.485,179.172,23.44,179.559,23.44Z" transform="translate(-151.298 -22.256)" fill="#005d30"/>
        <path id="パス_3" data-name="パス 3" d="M214.378,28.937a1.677,1.677,0,0,1,.976.774c.112.23.09.342-.022.864a19.6,19.6,0,0,0-.454,5.3c0,.656.09,1,.567,1a17.488,17.488,0,0,0,4.477-1.818,41.305,41.305,0,0,0,6.564-4.135c.3-.224.387-.275.5-.275a.15.15,0,0,1,.157.135,6.252,6.252,0,0,1-1.588,2,32.27,32.27,0,0,1-8.046,5.728c-.522.275-1.184.634-1.728.976a1.817,1.817,0,0,0-.634.634.636.636,0,0,1-.544.32c-.32,0-.774-.365-1.206-.842-.41-.454-.752-.819-.752-1.184a3.14,3.14,0,0,1,.135-.774,18.543,18.543,0,0,0,.18-4.045c-.022-2.227-.09-3.383-.886-4.522-.2-.3-.252-.387-.252-.454,0-.157.2-.2.454-.2A7.049,7.049,0,0,1,214.378,28.937Z" transform="translate(-165.897 -24.438)" fill="#005d30"/>
        <path id="パス_4" data-name="パス 4" d="M257.777,39.5a2.089,2.089,0,0,1,.067-.522,16.853,16.853,0,0,0,.32-2.02c.09-1,.135-2.02.135-3.091,0-2.272-.022-2.817-.365-2.817-.112,0-.2.022-.41.2a23.7,23.7,0,0,1-3.136,2.385,22.1,22.1,0,0,1-3,1.661,1.711,1.711,0,0,1-.589.18c-.112,0-.157-.045-.157-.112,0-.112.253-.32.656-.679a50.2,50.2,0,0,0,5.7-5.751c1.386-1.706,2.682-3.546,2.682-4.41a1.5,1.5,0,0,0-.157-.679,1.694,1.694,0,0,1-.224-.522.187.187,0,0,1,.2-.2c.886,0,3.2,1.088,3.2,2.138,0,.2-.067.365-.387.612a6.3,6.3,0,0,0-1.341,1.5c-.387.522-1.386,1.706-1.521,1.908a.362.362,0,0,0-.067.2c0,.067.045.135.18.2.656.342,1,.589,1,.819,0,.3-.252.589-.342,1.431-.09.864-.09,2.02-.09,3,0,1.341.067,3.479.18,4.432a5.259,5.259,0,0,1,.045.729c0,.774-.275,1.229-.909,1.229A2.116,2.116,0,0,1,257.777,39.5Z" transform="translate(-182.936 -22.116)" fill="#005d30"/>
        <path id="パス_5" data-name="パス 5" d="M295.12,32.243a6.125,6.125,0,0,0-.41,1.088,10.926,10.926,0,0,1-4.769,6.632,2.7,2.7,0,0,1-.886.41.119.119,0,0,1-.135-.135c0-.09.067-.18.342-.5,1.683-1.953,3.479-5.656,3.479-7.973a6.116,6.116,0,0,0-.275-1.728,3.733,3.733,0,0,1-.2-.752c0-.157.09-.18.2-.18.544,0,3,.976,3,2.183A3.136,3.136,0,0,1,295.12,32.243Zm11.474-.135a24.039,24.039,0,0,1-4.612,5.611c-.909.819-1.363,1.184-1.773,1.638-.387.41-.634.612-1.021.612a3.159,3.159,0,0,1-2.093-2.272,1.975,1.975,0,0,1,.09-.544,9.29,9.29,0,0,0,.23-2.727c-.045-3.181-.09-4.18-.729-5.476a.636.636,0,0,1-.09-.275c0-.09.09-.135.32-.135.522,0,2.906.634,2.906,1.908a2.843,2.843,0,0,1-.135.656,9.265,9.265,0,0,0-.342,2.093c-.09,1.52-.112,2.295-.112,3.047,0,.342.135.544.41.544.387,0,1.161-.454,2.839-1.818a38.617,38.617,0,0,0,4.2-4.045c.253-.275.32-.32.41-.32a.129.129,0,0,1,.135.135A4.247,4.247,0,0,1,306.594,32.108Z" transform="translate(-199.738 -24.495)" fill="#005d30"/>
        <path id="パス_6" data-name="パス 6" d="M332.714,36.695a1.317,1.317,0,0,1,.146-.376,36.27,36.27,0,0,0,2.5-7.642c.062-.292,0-.561-.438-.561-.522,0-1.313.022-1.582.062a1.834,1.834,0,0,1-.292.039c-.062,0-.107-.062-.146-.146l-.331-.46c-.084-.107-.084-.123-.084-.146s.022-.039.062-.039h.039c.623.039,2.48.146,2.581.146a.489.489,0,0,0,.561-.544c0-1.251-.022-2.227-.039-2.749-.022-.415-.062-1.06-.123-1.6-.022-.208-.084-.4-.084-.477,0-.062.039-.123.146-.123a15.654,15.654,0,0,1,2.126.584c.477.168.623.23.623.4,0,.123-.039.23-.269.4a1.057,1.057,0,0,0-.477.875c-.022.314-.062,1.852-.084,2.71-.022.477.415.477.544.269.039-.062.084-.168.146-.292.252-.561.353-.729.522-.729.314,0,1.436,1.251,1.436,1.543,0,.269-.438.292-.976.292h-1.145a.5.5,0,0,0-.544.522v.668c0,.314.107.477.292.544a2.476,2.476,0,0,1,.292.107c.875.331,2.312,1.06,2.312,2.166,0,.83-.331,1.251-.915,1.251-.46,0-.769-.376-.915-.875a8.925,8.925,0,0,0-.584-1.6c-.168-.314-.477-.331-.477.168,0,3.333.022,6.6.062,7.5l.039,1.189a1.023,1.023,0,0,1-.269.752,1.5,1.5,0,0,1-1.167.46c-.561,0-.729-.331-.729-.668,0-.46.062-1.313.084-1.773.039-1.251.123-4.169.123-4.814,0-.353-.252-.4-.415-.107a14.818,14.818,0,0,1-2.143,2.957c-.146.146-.253.23-.331.23A.109.109,0,0,1,332.714,36.695Zm19.75.724c0,.062-.039.107-.23.146a3.654,3.654,0,0,0-1.874,1.145c-.185.23-.23.252-.314.252-.123,0-.331-.23-.522-.46a14.734,14.734,0,0,1-2.688-5.083c-.062-.185-.292-.168-.292.062.022,1.268.022,2.227.022,2.9,0,1.229.062,3.394.062,3.518a.835.835,0,0,1-.208.645,1.774,1.774,0,0,1-1.189.438c-.645,0-.791-.252-.791-.539,0-.039,0-.252.022-.544.062-.814.123-2.373.123-3.54l.022-1.728c0-.376-.23-.46-.46-.123a13.864,13.864,0,0,1-5.022,4.623,1.206,1.206,0,0,1-.438.185c-.039,0-.084-.022-.084-.062,0-.062.022-.084.331-.415a25.9,25.9,0,0,0,4.668-6.873c.146-.331-.022-.544-.331-.544-.623,0-1.835.022-2.227.062l-.415.05a.231.231,0,0,1-.185-.123l-.4-.477c-.084-.084-.107-.123-.107-.146,0-.039.039-.039.062-.039h.084c.915.084,2.564.146,3.5.146h.522a.466.466,0,0,0,.522-.522l-.022-2.979a.463.463,0,0,0-.522-.522h-1.4a.73.73,0,0,0-.645.353,10.7,10.7,0,0,1-1.936,2.334c-.146.123-.208.168-.269.168a.079.079,0,0,1-.084-.084,1.679,1.679,0,0,1,.123-.376,22.782,22.782,0,0,0,1.352-4.977,5.277,5.277,0,0,0,.022-.959.2.2,0,0,1,.208-.23,14.136,14.136,0,0,1,2.227.729c.353.168.415.23.415.331s-.107.185-.314.252c-.376.107-.477.208-.645.668-.084.208-.168.415-.269.645-.168.353,0,.606.4.606h.814a.473.473,0,0,0,.522-.522c-.022-.623-.022-1.352-.062-1.728-.039-.561-.123-1.167-.168-1.459-.039-.252-.107-.438-.107-.5a.184.184,0,0,1,.185-.168c.208,0,2.749.623,2.749.959,0,.084-.039.168-.23.314a.9.9,0,0,0-.376.561c-.039.292-.062,1.251-.062,2.02a.473.473,0,0,0,.522.522h.269c.46,0,.561,0,1.021-.584.314-.4.561-.752.791-.752a4.592,4.592,0,0,1,1.981,1.6c0,.252-.4.269-1.105.269h-2.957a.466.466,0,0,0-.522.522l-.022,2.979a.463.463,0,0,0,.522.522h1.083c.438,0,.522-.039.915-.544.477-.623.583-.752.791-.752a5.792,5.792,0,0,1,2.042,1.543c0,.269-.331.292-1.105.292h-3.625c-.314,0-.46.252-.292.544a13.059,13.059,0,0,0,5.313,5.207C352.419,37.318,352.464,37.34,352.464,37.419Z" transform="translate(-218.863 -21.602)" fill="#005d30"/>
        <path id="パス_7" data-name="パス 7" d="M393.835,39.364a14.533,14.533,0,0,1-4.023-5.936,28.347,28.347,0,0,1-1.481-5.874.5.5,0,0,0-.544-.477h-5.5c-.623,0-2.334.022-2.749.084a2.236,2.236,0,0,1-.314.039c-.062,0-.107-.022-.185-.146l-.415-.477c-.084-.084-.084-.107-.084-.123a.056.056,0,0,1,.062-.062h.062c1.021.123,2.688.146,3.731.146h5.252a.441.441,0,0,0,.477-.584,26.969,26.969,0,0,0-.561-3.5,1.473,1.473,0,0,1-.107-.438.13.13,0,0,1,.146-.146c.146,0,1.874.314,2.25.4.5.107.769.185.769.46a.54.54,0,0,1-.208.353c-.208.208-.23.353-.23.9,0,.668.039,1.375.107,2.065a.5.5,0,0,0,.544.5H393c.83,0,.875-.039,1.313-.668.269-.4.583-.853.9-.853a5.174,5.174,0,0,1,2.211,1.751c0,.314-.331.314-.769.314h-5.667a.432.432,0,0,0-.477.561,23.542,23.542,0,0,0,.791,3.518,13.736,13.736,0,0,0,3,5.5,1.85,1.85,0,0,0,.937.584c.353,0,1.268-1.919,1.4-2.211.146-.331.185-.438.253-.438.039,0,.107.022.107.123,0,.084-.022.353-.084.814-.062.522-.208,2.126-.208,2.48a2.509,2.509,0,0,0,.269,1.122,1.533,1.533,0,0,1,.208.707.689.689,0,0,1-.752.69A4.133,4.133,0,0,1,393.835,39.364Zm-14.246,1.145a17.01,17.01,0,0,1-.707-2.356c0-.146.123-.185.544-.208.937-.062,1.874-.146,2.789-.23a.514.514,0,0,0,.477-.561V32.53a.473.473,0,0,0-.522-.522c-.668.022-1.56.039-1.874.084a2.237,2.237,0,0,1-.314.039c-.045,0-.107-.062-.168-.146l-.4-.477c-.062-.062-.107-.107-.107-.146s.039-.039.062-.039h.084c.853.107,2.665.146,3.709.146h1.582c.83,0,1-.022,1.29-.438.584-.836.707-1.021.915-1.021a4.788,4.788,0,0,1,1.812,1.728c0,.23-.4.269-.729.269h-2.626a.473.473,0,0,0-.522.522v4.247a.432.432,0,0,0,.561.477c1.414-.23,2.811-.522,4.163-.791a3.483,3.483,0,0,1,.376-.062c.062,0,.062.039.062.062,0,.062-.062.107-.415.292a65.254,65.254,0,0,1-6.626,2.643,20.815,20.815,0,0,0-2.351.915,1.451,1.451,0,0,0-.353.376c-.185.252-.269.314-.376.314C379.859,41.008,379.758,40.929,379.589,40.509Zm13.477-15.828a15.3,15.3,0,0,0-1.751-2.289c-.146-.146-.168-.168-.168-.208s.039-.062.123-.062a7.154,7.154,0,0,1,2.665.707,1.5,1.5,0,0,1,.959,1.189,1.14,1.14,0,0,1-1.06,1.189A.9.9,0,0,1,393.066,24.681Z" transform="translate(-239.076 -21.567)" fill="#005d30"/>
        <path id="パス_8" data-name="パス 8" d="M440,31.379a19.463,19.463,0,0,1-6.4-7.019c-.208-.376-.561-.314-.791-.022a22.319,22.319,0,0,1-8.208,6.267,7.681,7.681,0,0,1-1.812.606c-.039,0-.107-.022-.107-.084,0-.084.039-.123.314-.314a34.433,34.433,0,0,0,4.438-3.686,21.911,21.911,0,0,0,3.041-3.585,5.851,5.851,0,0,0,.83-1.773c.084-.353.168-.438.331-.438a7.6,7.6,0,0,1,1.582.69c.544.292,1.021.544,1.021.769,0,.062-.023.123-.146.208a.475.475,0,0,0-.123.769,13.809,13.809,0,0,0,4.023,3.5,21.374,21.374,0,0,0,4.769,2.126c.292.084.331.107.331.185s-.062.123-.292.208c-1.436.522-1.773.9-2.082,1.52-.084.168-.168.252-.314.252A.794.794,0,0,1,440,31.379Zm-14,9.375-1.122-2.272a1.479,1.479,0,0,1-.185-.46c0-.123.062-.146.168-.146.062,0,.168.022.292.039a15.51,15.51,0,0,0,2.272.23c.314,0,.645.022.959.022a.675.675,0,0,0,.668-.415,17.929,17.929,0,0,0,1.268-3.439c.107-.353-.107-.584-.46-.584h-1.352c-1.105,0-2.435.022-2.856.084l-.208.022c-.084,0-.146-.062-.208-.146l-.376-.46a.6.6,0,0,1-.107-.146c0-.039.062-.039.084-.039h.084c1.352.107,2.856.146,3.686.146H435.7c.875,0,1.206-.084,1.582-.668.46-.707.561-.791.791-.791a5.727,5.727,0,0,1,2,1.728c0,.269-.123.269-1.083.269h-6.4c-.438,0-.5.208-.185.46.623.522.875.769.875.915,0,.185-.107.252-.415.331a1.24,1.24,0,0,0-.769.4c-.46.5-1.105,1.122-1.812,1.79-.353.331-.23.522.185.522,1.919-.062,3.793-.123,5.5-.252.415-.022.477-.252.253-.561a10.33,10.33,0,0,0-.9-1.122c-.185-.208-.253-.292-.253-.353,0-.084.062-.107.123-.107a8.881,8.881,0,0,1,4.085,2,2.391,2.391,0,0,1,.9,1.706c0,.729-.4,1.481-1.145,1.481-.522,0-.814-.269-1.229-1.021-.208-.4-.438-.769-.623-1.105a.613.613,0,0,0-.707-.331c-1.189.208-2.5.5-4.186.853-1.852.4-4.416,1.044-4.876,1.189a2.438,2.438,0,0,0-.752.5.44.44,0,0,1-.269.123C426.253,41.147,426.152,41.023,426.006,40.754ZM427.919,30.5c-.062,0-.123-.062-.185-.123l-.4-.477c-.062-.062-.084-.084-.084-.146,0-.039.039-.039.062-.039h.084c1.021.107,2.643.146,3.686.146h1.852c.853,0,1.105-.039,1.436-.5.583-.814.668-.959.853-.959a5.861,5.861,0,0,1,1.874,1.773c0,.23-.123.23-1.105.23h-5c-.623,0-2.211,0-2.856.084Z" transform="translate(-258.454 -21.33)" fill="#005d30"/>
        <path id="パス_9" data-name="パス 9" d="M471.512,40.367a1.848,1.848,0,0,1,.022-.331c.107-.729.146-3.81.185-6.688,0-.5-.168-.623-.606-.314a20.6,20.6,0,0,1-2.665,1.666,1.321,1.321,0,0,1-.314.107c-.062,0-.084-.022-.084-.062,0-.062.084-.146.46-.544a42.376,42.376,0,0,0,5.038-6.267c.185-.314.039-.561-.331-.561h-1.167c-.623,0-2.082.022-2.626.084l-.23.022a.231.231,0,0,1-.185-.123l-.4-.477a.382.382,0,0,1-.107-.146c0-.039.062-.039.084-.039h.084c.477.039,1.582.084,2.4.123a.471.471,0,0,0,.544-.522V24.943a22.732,22.732,0,0,0-.208-2.418,1.5,1.5,0,0,1-.039-.292c0-.107.062-.146.185-.146a11.521,11.521,0,0,1,1.812.438c.645.185.959.331.959.544,0,.062-.062.123-.146.208-.353.353-.46.46-.46,1.251v1.689c0,.353.292.415.477.23s.253-.252.46-.438c.253-.23.376-.292.46-.292.168,0,.292.107.561.376l.875.9c.292.292.4.438.4.606,0,.23-.168.314-.583.438a1.9,1.9,0,0,0-.83.69c-.46.522-1,1.189-1.582,1.812a.814.814,0,0,0-.252.584c0,.208.146.353.46.415,1.335.292,2.979.752,2.979,2.143,0,.69-.46,1.29-.959,1.29-.522,0-.814-.269-1.189-1.083a9.6,9.6,0,0,0-.707-1.375c-.331-.438-.584-.376-.584.123l.022,3.916c0,1.167.123,3.019.123,3.394,0,.752-.9,1.06-1.5,1.06S471.512,40.788,471.512,40.367Zm4.5-.123c-.062,0-.123-.062-.185-.146l-.4-.477a.482.482,0,0,1-.084-.123.066.066,0,0,1,.062-.062l.23.022c1.021.107,2.5.123,3.54.123h.583a.473.473,0,0,0,.522-.522V29.522A.473.473,0,0,0,479.76,29a20.012,20.012,0,0,0-2.25.084,1.439,1.439,0,0,1-.23.022c-.062,0-.146-.084-.185-.123l-.4-.477a.247.247,0,0,1-.084-.146c0-.039.039-.039.062-.039l.23.022c.915.062,2.418.123,2.856.123a.473.473,0,0,0,.522-.522V27.07a35.948,35.948,0,0,0-.314-4.73.905.905,0,0,1-.022-.208.223.223,0,0,1,.253-.252c.107,0,1.56.331,1.958.46.606.185,1.021.314,1.021.606,0,.107-.107.208-.168.269a1.9,1.9,0,0,0-.292.331c-.062.1-.208.353-.23,2.126l-.022,2.272c0,.331.168.544.522.522.415-.022.606-.146,1.044-.769.5-.707.668-.915.853-.915a5.062,5.062,0,0,1,2.02,1.958c0,.252-.353.269-1.105.269h-2.811a.473.473,0,0,0-.522.522v9.538a.473.473,0,0,0,.522.522h.269c.729,0,.915-.208,1.582-1.083.168-.23.415-.561.668-.561a6.478,6.478,0,0,1,2.289,1.919c0,.269-.331.269-1.122.269h-8.04a15.757,15.757,0,0,0-2.457.107Z" transform="translate(-278.365 -21.571)" fill="#005d30"/>
      </g>
      <g id="グループ_26" data-name="グループ 26" transform="translate(0 0.68)">
        <path id="パス_10" data-name="パス 10" d="M31.277.68,1.35,8.4V22.528H29.409V14.174h3.748v8.354H61.216V8.4ZM26.194,17.922H22.446V14.174h3.748Zm6.957-6.957H29.4V7.216h3.748Zm6.957,6.957H36.361V14.174h3.748Z" transform="translate(-0.593 -0.68)" fill="#005d30"/>
        <g id="グループ_22" data-name="グループ 22" transform="translate(0 23.419)">
          <g id="グループ_20" data-name="グループ 20">
            <path id="パス_11" data-name="パス 11" d="M6.1,50.561H2.676l-1.33,3.731h1.3v.331H0v-.331H.814l4.4-11.872H6.637l4.354,11.867h.791v.331H6.132v-.331H7.361ZM2.833,50.18H5.959l-1.5-4.528Z" transform="translate(0 -42.42)" fill="#00a199"/>
            <path id="パス_12" data-name="パス 12" d="M29.142,46.947h-.331c-.931-2.817-1.47-3.972-3.041-3.972h-.208V54.342h1.47v.365H20.726v-.365H22.2V42.975h-.224c-1.571,0-2.16,1.3-3.041,3.972H18.6l.174-4.337H28.969Z" transform="translate(-8.164 -42.503)" fill="#00a199"/>
            <path id="パス_13" data-name="パス 13" d="M43.484,48.581v5.79h1.122V54.7H38.99v-.331h1.122V42.931H38.99V42.6h5.218c3.613,0,5.341.382,5.341,2.9,0,2.11-1.105,2.732-2.94,2.884v.05c1.868.241,2.508.965,2.508,2.974v.915c0,1.122.05,1.52.539,1.52.309,0,.572-.14.8-1.487l.292.034c-.258,1.969-.741,2.469-2.351,2.469-2.177,0-2.817-.724-2.817-3.159V50.438c0-1.229-.241-1.868-1.173-1.868h-.92Zm0-.325h.555c1.279,0,1.936-.707,1.936-2.575v-.5c0-1.936-.707-2.244-1.919-2.244h-.572Z" transform="translate(-17.114 -42.499)" fill="#00a199"/>
            <path id="パス_14" data-name="パス 14" d="M65.329,50.565H61.906L60.577,54.3h1.3v.331H59.23V54.3h.814l4.4-11.867h1.42L70.221,54.3h.8v.331H65.362V54.3h1.229Zm-3.265-.382h3.125l-1.5-4.528Z" transform="translate(-25.998 -42.424)" fill="#00a199"/>
            <path id="パス_15" data-name="パス 15" d="M86.458,42.606v.331H85.51V54.371h.948V54.7H81.19v-.331h.948V42.931H81.19V42.6h5.268Z" transform="translate(-35.637 -42.499)" fill="#00a199"/>
            <path id="パス_16" data-name="パス 16" d="M98.217,42.61v.382H96.388V54.325h.623c2.143,0,3.091-1.554,4.113-3.664h.365l-.325,4.045H92v-.382h1.021V42.992H92V42.61h6.217Z" transform="translate(-40.382 -42.503)" fill="#00a199"/>
          </g>
          <g id="グループ_21" data-name="グループ 21">
            <path id="パス_17" data-name="パス 17" d="M6.1,50.561H2.676l-1.33,3.731h1.3v.331H0v-.331H.814l4.4-11.872H6.637l4.354,11.867h.791v.331H6.132v-.331H7.361ZM2.833,50.18H5.959l-1.5-4.528Z" transform="translate(0 -42.42)" fill="#005d30"/>
            <path id="パス_18" data-name="パス 18" d="M29.142,46.947h-.331c-.931-2.817-1.47-3.972-3.041-3.972h-.208V54.342h1.47v.365H20.726v-.365H22.2V42.975h-.224c-1.571,0-2.16,1.3-3.041,3.972H18.6l.174-4.337H28.969Z" transform="translate(-8.164 -42.503)" fill="#005d30"/>
            <path id="パス_19" data-name="パス 19" d="M43.484,48.581v5.79h1.122V54.7H38.99v-.331h1.122V42.931H38.99V42.6h5.218c3.613,0,5.341.382,5.341,2.9,0,2.11-1.105,2.732-2.94,2.884v.05c1.868.241,2.508.965,2.508,2.974v.915c0,1.122.05,1.52.539,1.52.309,0,.572-.14.8-1.487l.292.034c-.258,1.969-.741,2.469-2.351,2.469-2.177,0-2.817-.724-2.817-3.159V50.438c0-1.229-.241-1.868-1.173-1.868h-.92Zm0-.325h.555c1.279,0,1.936-.707,1.936-2.575v-.5c0-1.936-.707-2.244-1.919-2.244h-.572Z" transform="translate(-17.114 -42.499)" fill="#005d30"/>
            <path id="パス_20" data-name="パス 20" d="M65.329,50.565H61.906L60.577,54.3h1.3v.331H59.23V54.3h.814l4.4-11.867h1.42L70.221,54.3h.8v.331H65.362V54.3h1.229Zm-3.265-.382h3.125l-1.5-4.528Z" transform="translate(-25.998 -42.424)" fill="#005d30"/>
            <path id="パス_21" data-name="パス 21" d="M86.458,42.606v.331H85.51V54.371h.948V54.7H81.19v-.331h.948V42.931H81.19V42.6h5.268Z" transform="translate(-35.637 -42.499)" fill="#005d30"/>
            <path id="パス_22" data-name="パス 22" d="M98.217,42.61v.382H96.388V54.325h.623c2.143,0,3.091-1.554,4.113-3.664h.365l-.325,4.045H92v-.382h1.021V42.992H92V42.61h6.217Z" transform="translate(-40.382 -42.503)" fill="#005d30"/>
          </g>
        </g>
        <g id="グループ_25" data-name="グループ 25" transform="translate(0.814 37.103)">
          <g id="グループ_23" data-name="グループ 23">
            <path id="パス_23" data-name="パス 23" d="M3.116,69.419v.645c0,1.5.432,2.474,1.324,2.474.662,0,1.2-.685,1.65-1.751h.146L6.18,72.611H6.09c-.056-.107-.09-.163-.219-.163a8.834,8.834,0,0,1-1.627.252A2.538,2.538,0,0,1,1.45,69.834,2.693,2.693,0,0,1,4.267,66.81a8.1,8.1,0,0,1,1.526.252c.129,0,.163-.056.219-.163H6.1l.067,1.773h-.14c-.449-1-.937-1.7-1.644-1.7C3.56,66.978,3.116,67.73,3.116,69.419Z" transform="translate(-1.45 -66.81)" fill="#00a199"/>
            <path id="パス_24" data-name="パス 24" d="M14.294,66.82c1.756,0,2.648,1.077,2.648,2.934,0,1.823-.858,2.957-2.744,2.957-1.823,0-2.7-1.055-2.7-2.85C11.5,67.976,12.471,66.82,14.294,66.82Zm.965,2.676c0-1.678-.05-2.508-1.027-2.508s-1.055.864-1.055,2.542v.589c0,1.537.1,2.418,1.055,2.418.915,0,1.027-.791,1.027-2.435Z" transform="translate(-5.861 -66.814)" fill="#00a199"/>
            <path id="パス_25" data-name="パス 25" d="M24.141,69.8v2.738h.533v.157H22.02v-.157h.533V67.127H22.02V66.97h2.469c1.706,0,2.525.18,2.525,1.375,0,1-.522,1.29-1.391,1.363v.022c.881.112,1.184.46,1.184,1.408v.432c0,.533.022.718.252.718.146,0,.269-.067.376-.7l.14.017c-.123.931-.353,1.167-1.111,1.167-1.027,0-1.33-.342-1.33-1.5v-.595c0-.578-.112-.881-.555-.881Zm0-.151H24.4c.606,0,.915-.337.915-1.218v-.236c0-.915-.337-1.06-.909-1.06h-.269Z" transform="translate(-10.479 -66.88)" fill="#00a199"/>
            <path id="パス_26" data-name="パス 26" d="M34.847,66.98c1.537,0,2.441.342,2.441,1.627,0,1.391-1.072,1.751-2.654,1.751h-.067v2.188h1.021V72.7H32.44v-.157h.533V67.137H32.44V66.98h2.407Zm-.281,3.215h.174c.684,0,.864-.477.864-1.42v-.393c0-.92-.2-1.251-.819-1.251h-.219v3.063Z" transform="translate(-15.053 -66.885)" fill="#00a199"/>
            <path id="パス_27" data-name="パス 27" d="M44.854,66.82c1.756,0,2.648,1.077,2.648,2.934,0,1.823-.858,2.957-2.744,2.957-1.823,0-2.7-1.055-2.7-2.85C42.06,67.976,43.031,66.82,44.854,66.82Zm.965,2.676c0-1.678-.05-2.508-1.027-2.508s-1.055.864-1.055,2.542v.589c0,1.537.1,2.418,1.055,2.418.915,0,1.027-.791,1.027-2.435Z" transform="translate(-19.275 -66.814)" fill="#00a199"/>
            <path id="パス_28" data-name="パス 28" d="M54.7,69.8v2.738h.533v.157H52.58v-.157h.533V67.127H52.58V66.97h2.469c1.706,0,2.525.18,2.525,1.375,0,1-.522,1.29-1.391,1.363v.022c.881.112,1.184.46,1.184,1.408v.432c0,.533.022.718.252.718.146,0,.269-.067.376-.7l.14.017c-.123.931-.353,1.167-1.111,1.167-1.027,0-1.33-.342-1.33-1.5v-.595c0-.578-.112-.881-.555-.881Zm0-.151h.264c.606,0,.915-.337.915-1.218v-.236c0-.915-.337-1.06-.909-1.06H54.7Z" transform="translate(-23.893 -66.88)" fill="#00a199"/>
            <path id="パス_29" data-name="パス 29" d="M65.754,70.743H64.138l-.628,1.767h.612v.157H62.87v-.157h.382L65.333,66.9H66l2.059,5.611h.376v.157H65.765v-.157h.578Zm-1.543-.18h1.481l-.713-2.143Z" transform="translate(-28.409 -66.85)" fill="#00a199"/>
            <path id="パス_30" data-name="パス 30" d="M78.4,69.024h-.157c-.443-1.33-.7-1.88-1.436-1.88h-.1v5.375h.7v.174H74.424v-.174h.7V67.144h-.107c-.741,0-1.021.612-1.436,1.88H73.42L73.5,66.97h4.82Z" transform="translate(-33.04 -66.88)" fill="#00a199"/>
            <path id="パス_31" data-name="パス 31" d="M85.7,66.98v.157h-.449v5.409H85.7V72.7H83.21v-.157h.449V67.137H83.21V66.98Z" transform="translate(-37.337 -66.885)" fill="#00a199"/>
            <path id="パス_32" data-name="パス 32" d="M91.4,66.82c1.756,0,2.648,1.077,2.648,2.934,0,1.823-.858,2.957-2.744,2.957-1.823,0-2.7-1.055-2.7-2.85C88.61,67.976,89.586,66.82,91.4,66.82Zm.965,2.676c0-1.678-.05-2.508-1.027-2.508s-1.055.864-1.055,2.542v.589c0,1.537.1,2.418,1.055,2.418.915,0,1.027-.791,1.027-2.435Z" transform="translate(-39.707 -66.814)" fill="#00a199"/>
            <path id="パス_33" data-name="パス 33" d="M103.888,72.7h-1.145l-2.805-5.285v5.134h.449V72.7H99.27v-.157h.449V67.137H99.27V66.98h2.255l2.143,4.1V67.137h-.449V66.98h1.117v.157h-.449V72.7Z" transform="translate(-44.386 -66.885)" fill="#00a199"/>
          </g>
          <g id="グループ_24" data-name="グループ 24">
            <path id="パス_34" data-name="パス 34" d="M3.116,69.419v.645c0,1.5.432,2.474,1.324,2.474.662,0,1.2-.685,1.65-1.751h.146L6.18,72.611H6.09c-.056-.107-.09-.163-.219-.163a8.834,8.834,0,0,1-1.627.252A2.538,2.538,0,0,1,1.45,69.834,2.693,2.693,0,0,1,4.267,66.81a8.1,8.1,0,0,1,1.526.252c.129,0,.163-.056.219-.163H6.1l.067,1.773h-.14c-.449-1-.937-1.7-1.644-1.7C3.56,66.978,3.116,67.73,3.116,69.419Z" transform="translate(-1.45 -66.81)" fill="#005d30"/>
            <path id="パス_35" data-name="パス 35" d="M14.294,66.82c1.756,0,2.648,1.077,2.648,2.934,0,1.823-.858,2.957-2.744,2.957-1.823,0-2.7-1.055-2.7-2.85C11.5,67.976,12.471,66.82,14.294,66.82Zm.965,2.676c0-1.678-.05-2.508-1.027-2.508s-1.055.864-1.055,2.542v.589c0,1.537.1,2.418,1.055,2.418.915,0,1.027-.791,1.027-2.435Z" transform="translate(-5.861 -66.814)" fill="#005d30"/>
            <path id="パス_36" data-name="パス 36" d="M24.141,69.8v2.738h.533v.157H22.02v-.157h.533V67.127H22.02V66.97h2.469c1.706,0,2.525.18,2.525,1.375,0,1-.522,1.29-1.391,1.363v.022c.881.112,1.184.46,1.184,1.408v.432c0,.533.022.718.252.718.146,0,.269-.067.376-.7l.14.017c-.123.931-.353,1.167-1.111,1.167-1.027,0-1.33-.342-1.33-1.5v-.595c0-.578-.112-.881-.555-.881Zm0-.151H24.4c.606,0,.915-.337.915-1.218v-.236c0-.915-.337-1.06-.909-1.06h-.269Z" transform="translate(-10.479 -66.88)" fill="#005d30"/>
            <path id="パス_37" data-name="パス 37" d="M34.847,66.98c1.537,0,2.441.342,2.441,1.627,0,1.391-1.072,1.751-2.654,1.751h-.067v2.188h1.021V72.7H32.44v-.157h.533V67.137H32.44V66.98h2.407Zm-.281,3.215h.174c.684,0,.864-.477.864-1.42v-.393c0-.92-.2-1.251-.819-1.251h-.219v3.063Z" transform="translate(-15.053 -66.885)" fill="#005d30"/>
            <path id="パス_38" data-name="パス 38" d="M44.854,66.82c1.756,0,2.648,1.077,2.648,2.934,0,1.823-.858,2.957-2.744,2.957-1.823,0-2.7-1.055-2.7-2.85C42.06,67.976,43.031,66.82,44.854,66.82Zm.965,2.676c0-1.678-.05-2.508-1.027-2.508s-1.055.864-1.055,2.542v.589c0,1.537.1,2.418,1.055,2.418.915,0,1.027-.791,1.027-2.435Z" transform="translate(-19.275 -66.814)" fill="#005d30"/>
            <path id="パス_39" data-name="パス 39" d="M54.7,69.8v2.738h.533v.157H52.58v-.157h.533V67.127H52.58V66.97h2.469c1.706,0,2.525.18,2.525,1.375,0,1-.522,1.29-1.391,1.363v.022c.881.112,1.184.46,1.184,1.408v.432c0,.533.022.718.252.718.146,0,.269-.067.376-.7l.14.017c-.123.931-.353,1.167-1.111,1.167-1.027,0-1.33-.342-1.33-1.5v-.595c0-.578-.112-.881-.555-.881Zm0-.151h.264c.606,0,.915-.337.915-1.218v-.236c0-.915-.337-1.06-.909-1.06H54.7Z" transform="translate(-23.893 -66.88)" fill="#005d30"/>
            <path id="パス_40" data-name="パス 40" d="M65.754,70.743H64.138l-.628,1.767h.612v.157H62.87v-.157h.382L65.333,66.9H66l2.059,5.611h.376v.157H65.765v-.157h.578Zm-1.543-.18h1.481l-.713-2.143Z" transform="translate(-28.409 -66.85)" fill="#005d30"/>
            <path id="パス_41" data-name="パス 41" d="M78.4,69.024h-.157c-.443-1.33-.7-1.88-1.436-1.88h-.1v5.375h.7v.174H74.424v-.174h.7V67.144h-.107c-.741,0-1.021.612-1.436,1.88H73.42L73.5,66.97h4.82Z" transform="translate(-33.04 -66.88)" fill="#005d30"/>
            <path id="パス_42" data-name="パス 42" d="M85.7,66.98v.157h-.449v5.409H85.7V72.7H83.21v-.157h.449V67.137H83.21V66.98Z" transform="translate(-37.337 -66.885)" fill="#005d30"/>
            <path id="パス_43" data-name="パス 43" d="M91.4,66.82c1.756,0,2.648,1.077,2.648,2.934,0,1.823-.858,2.957-2.744,2.957-1.823,0-2.7-1.055-2.7-2.85C88.61,67.976,89.586,66.82,91.4,66.82Zm.965,2.676c0-1.678-.05-2.508-1.027-2.508s-1.055.864-1.055,2.542v.589c0,1.537.1,2.418,1.055,2.418.915,0,1.027-.791,1.027-2.435Z" transform="translate(-39.707 -66.814)" fill="#005d30"/>
            <path id="パス_44" data-name="パス 44" d="M103.888,72.7h-1.145l-2.805-5.285v5.134h.449V72.7H99.27v-.157h.449V67.137H99.27V66.98h2.255l2.143,4.1V67.137h-.449V66.98h1.117v.157h-.449V72.7Z" transform="translate(-44.386 -66.885)" fill="#005d30"/>
          </g>
        </g>
      </g>
    </g>
  </g>
</svg>
