<svg xmlns="http://www.w3.org/2000/svg" width="20" height="20" viewBox="0 0 20 20">
  <g id="グループ_1" data-name="グループ 1" transform="translate(-841 -260.5)">
    <g id="楕円形_1" data-name="楕円形 1" transform="translate(841 260.5)" fill="#fff" stroke="#000" stroke-width="0.7">
      <circle cx="10" cy="10" r="10" stroke="none"/>
      <circle cx="10" cy="10" r="9.65" fill="none"/>
    </g>
    <path id="icon_call" d="M128.061-831.44a7.139,7.139,0,0,1-2.937-.648,8.784,8.784,0,0,1-2.639-1.837,8.785,8.785,0,0,1-1.837-2.639A7.139,7.139,0,0,1,120-839.5a.484.484,0,0,1,.143-.357A.484.484,0,0,1,120.5-840h1.926a.442.442,0,0,1,.3.113.434.434,0,0,1,.155.268l.309,1.665a.838.838,0,0,1-.012.321.5.5,0,0,1-.131.226l-1.153,1.165a5.752,5.752,0,0,0,.565.85,8.362,8.362,0,0,0,.719.791,8.366,8.366,0,0,0,.773.684,7.51,7.51,0,0,0,.856.577l1.118-1.118a.666.666,0,0,1,.279-.161.766.766,0,0,1,.339-.03l1.641.333a.55.55,0,0,1,.273.172.419.419,0,0,1,.107.279v1.926a.484.484,0,0,1-.143.357A.484.484,0,0,1,128.061-831.44Zm-6.623-5.707.785-.785-.2-1.118h-1.058a9.772,9.772,0,0,0,.166.963A5.208,5.208,0,0,0,121.439-837.146Zm4.256,4.256a5.91,5.91,0,0,0,.945.321,5.8,5.8,0,0,0,.969.154v-1.046l-1.118-.226ZM121.439-837.146ZM125.7-832.89Z" transform="translate(727 1106.5)"/>
  </g>
</svg>
